<?xml version="1.0" standalone="no"?>
<!DOCTYPE svg PUBLIC "-//W3C//DTD SVG 20010904//EN"
 "http://www.w3.org/TR/2001/REC-SVG-20010904/DTD/svg10.dtd">
<svg version="1.0" xmlns="http://www.w3.org/2000/svg"
 width="1200.000000pt" height="1200.000000pt" viewBox="0 0 1200.000000 1200.000000"
 preserveAspectRatio="xMidYMid meet">
<metadata>
Created by potrace 1.14, written by Peter Selinger 2001-2017
</metadata>
<g transform="translate(0.000000,1200.000000) scale(0.100000,-0.100000)"
fill="#000000" stroke="none">
<path d="M6062 10864 c-12 -19 -22 -38 -22 -44 0 -5 -4 -10 -10 -10 -5 0 -10
-4 -10 -10 0 -5 -37 -69 -82 -142 -45 -73 -117 -191 -161 -263 -44 -71 -97
-157 -117 -190 -34 -55 -146 -237 -195 -319 -11 -18 -42 -70 -70 -115 -27 -45
-57 -94 -66 -109 -9 -15 -35 -56 -57 -92 -45 -73 -171 -279 -332 -545 -61 -99
-114 -187 -120 -195 -6 -8 -72 -116 -147 -240 -75 -124 -140 -226 -145 -228
-4 -2 -8 -9 -8 -14 0 -6 -22 -47 -50 -90 -27 -43 -50 -83 -50 -88 0 -6 -4 -10
-10 -10 -5 0 -10 -4 -10 -10 0 -8 -35 -69 -70 -120 -6 -8 -66 -107 -135 -220
-135 -221 -131 -216 -301 -490 -63 -102 -117 -192 -121 -200 -4 -8 -27 -46
-51 -85 -25 -38 -55 -86 -66 -106 -25 -42 -114 -189 -136 -223 -8 -13 -30 -50
-49 -82 -19 -32 -65 -108 -103 -168 -38 -61 -73 -118 -78 -126 -5 -8 -32 -53
-61 -100 -29 -47 -151 -247 -272 -445 -121 -198 -242 -395 -268 -438 -27 -43
-49 -80 -49 -83 0 -3 -5 -10 -11 -17 -5 -7 -80 -127 -166 -267 -85 -140 -199
-327 -253 -415 -53 -88 -153 -251 -221 -363 -68 -111 -131 -215 -140 -230 -20
-32 -273 -444 -300 -487 -11 -16 -22 -38 -25 -47 -4 -10 -10 -18 -15 -18 -5 0
-9 -4 -9 -10 0 -10 -130 -224 -150 -247 -5 -7 -10 -14 -10 -17 0 -2 -18 -33
-40 -67 -22 -35 -43 -71 -47 -79 -4 -8 -27 -46 -51 -85 -25 -38 -53 -83 -62
-100 -10 -16 -90 -149 -180 -295 -253 -413 -264 -430 -284 -463 -27 -46 -185
-306 -211 -347 -12 -19 -41 -65 -63 -101 -23 -36 -42 -70 -42 -76 0 -6 -4 -13
-8 -15 -8 -3 -74 -110 -207 -332 -27 -46 -56 -90 -63 -99 -7 -8 -9 -17 -5 -19
4 -3 2650 -4 5878 -4 5835 1 5870 1 5910 21 55 28 97 92 97 150 0 82 -62 168
-132 183 -8 2 -2513 4 -5567 4 l-5551 1 11 24 c5 13 14 23 19 23 4 0 8 6 9 13
0 6 24 49 52 94 47 74 378 615 418 681 27 46 239 392 304 497 134 217 161 261
175 285 8 14 31 52 50 84 19 31 40 65 45 74 6 9 17 28 26 42 9 14 56 90 104
170 48 80 98 161 110 180 68 108 130 209 145 235 17 30 149 246 284 465 39 63
78 127 86 141 8 15 103 169 210 344 107 174 202 329 211 343 77 128 386 635
404 662 12 19 54 87 92 150 224 368 414 677 423 687 5 7 10 14 10 17 0 3 66
112 146 243 81 131 154 252 164 268 19 33 363 595 389 635 8 14 21 34 27 45
29 53 434 712 443 722 6 7 11 15 11 18 0 3 12 24 27 48 15 23 32 50 38 59 46
77 122 201 146 238 16 25 33 54 38 65 5 11 24 43 43 72 60 93 123 196 131 212
4 9 38 66 76 126 38 61 104 166 145 235 42 69 81 132 86 140 17 27 89 144 110
180 11 19 29 49 40 65 11 17 24 39 30 50 6 11 19 34 30 50 11 17 29 47 40 68
22 39 35 40 51 4 5 -12 18 -35 29 -52 11 -16 23 -38 26 -47 4 -10 10 -18 15
-18 5 0 9 -4 9 -9 0 -5 48 -87 107 -182 58 -96 147 -241 198 -324 446 -731
569 -933 583 -955 18 -27 23 -35 63 -102 14 -24 77 -126 139 -228 62 -102 135
-222 162 -266 67 -111 131 -176 158 -159 5 3 11 1 14 -3 8 -13 80 -6 113 11
64 34 103 104 97 175 -3 43 -27 86 -221 402 -66 109 -165 270 -178 292 -74
126 -160 264 -167 266 -4 2 -8 8 -8 14 0 6 -13 30 -30 55 -16 24 -30 46 -30
49 0 3 -12 24 -27 47 -16 23 -33 51 -40 62 -12 21 -127 209 -143 235 -49 78
-210 343 -210 346 0 2 -13 23 -30 47 -16 25 -30 49 -30 55 0 6 -3 12 -8 14 -4
2 -45 66 -91 143 -46 77 -97 159 -113 182 -15 23 -28 44 -28 48 0 3 -9 18 -19
33 -11 15 -90 144 -177 287 -87 143 -165 270 -174 281 -16 22 -16 22 -38 -12z"/>
<path d="M8735 5569 c-42 -12 -82 -49 -100 -93 -14 -32 -16 -123 -16 -678 l0
-641 -37 64 c-47 80 -168 203 -248 250 -80 48 -179 87 -268 106 -87 20 -326
22 -408 4 -32 -7 -61 -13 -65 -13 -5 0 -30 -9 -58 -18 -252 -87 -441 -261
-558 -512 -86 -185 -127 -397 -122 -638 9 -420 142 -734 404 -952 101 -84 295
-170 415 -184 28 -4 54 -8 58 -11 15 -8 231 -3 286 7 93 17 98 18 148 35 184
62 373 220 434 364 6 13 12 22 15 19 2 -2 5 -69 6 -149 1 -110 5 -154 17 -178
60 -125 272 -123 339 2 16 30 17 139 18 1542 0 831 -3 1528 -7 1550 -10 47
-53 99 -94 116 -37 15 -120 19 -159 8z m-595 -1314 c142 -44 246 -120 327
-240 67 -99 108 -205 134 -350 14 -78 18 -348 7 -438 -33 -258 -139 -456 -303
-566 -102 -68 -190 -93 -345 -97 -151 -4 -231 11 -345 67 -175 85 -292 246
-346 477 -20 84 -35 235 -33 333 8 475 191 754 545 829 68 14 294 5 359 -15z"/>
<path d="M5250 4584 c-113 -19 -127 -23 -203 -49 -187 -66 -371 -204 -466
-350 -14 -22 -29 -41 -33 -43 -5 -2 -8 -8 -8 -14 0 -5 -8 -22 -18 -36 -47 -68
-122 -287 -138 -402 -40 -287 -16 -563 67 -790 19 -53 105 -220 118 -230 3 -3
24 -27 46 -55 126 -160 308 -275 523 -332 82 -22 123 -26 267 -29 216 -4 363
22 515 94 152 71 310 208 401 348 49 74 122 236 134 294 2 8 9 35 16 60 6 25
13 52 14 60 1 8 8 51 15 95 13 82 17 304 6 385 -25 205 -70 350 -153 499 -100
180 -230 305 -411 396 -81 40 -205 82 -270 91 -26 3 -51 8 -55 11 -19 11 -297
9 -367 -3z m320 -308 c201 -32 364 -155 461 -348 16 -32 26 -58 23 -58 -4 0
-2 -6 4 -12 11 -14 38 -110 48 -172 3 -21 8 -48 11 -60 2 -11 6 -88 8 -171 5
-235 -24 -393 -100 -550 -76 -157 -182 -252 -345 -309 -73 -25 -102 -30 -210
-32 -156 -4 -246 13 -354 65 -243 119 -368 382 -369 775 -1 155 8 240 34 346
47 189 149 347 283 436 124 81 328 118 506 90z"/>
<path d="M10308 4596 c-1 -2 -28 -6 -58 -9 -237 -26 -432 -118 -596 -283 -219
-220 -327 -533 -318 -924 2 -104 5 -144 20 -235 72 -442 345 -754 752 -862 82
-22 123 -26 267 -29 122 -2 192 1 250 12 401 76 680 329 798 724 87 288 81
636 -15 910 -131 374 -406 612 -788 680 -59 11 -303 23 -312 16z m300 -336
c84 -23 140 -50 197 -93 190 -146 284 -375 290 -712 7 -377 -88 -635 -288
-781 -104 -76 -236 -112 -402 -112 -229 0 -407 80 -527 238 -60 79 -128 252
-143 362 -34 246 -20 487 36 659 86 261 281 431 524 456 28 3 52 7 54 9 11 10
195 -9 259 -26z"/>
</g>
</svg>
